<?xml version="1.0" encoding="UTF-8" standalone="no"?>
<!-- Created with Inkscape (http://www.inkscape.org/) -->

<svg
   version="1.1"
   id="svg9"
   width="367.17612"
   height="353.53989"
   viewBox="2 0 367.17612 353.53989"
   sodipodi:docname="quickpay.svg"
   inkscape:version="1.2 (dc2aeda, 2022-05-15)"
   inkscape:export-filename="../Downloads/quickpay.svg"
   inkscape:export-xdpi="96"
   inkscape:export-ydpi="96"
   xmlns:inkscape="http://www.inkscape.org/namespaces/inkscape"
   xmlns:sodipodi="http://sodipodi.sourceforge.net/DTD/sodipodi-0.dtd"
   xmlns="http://www.w3.org/2000/svg"
   xmlns:svg="http://www.w3.org/2000/svg">
  <defs
     id="defs13" />
  <sodipodi:namedview
     id="namedview11"
     pagecolor="#ffffff"
     bordercolor="#000000"
     borderopacity="0.25"
     inkscape:showpageshadow="2"
     inkscape:pageopacity="0.0"
     inkscape:pagecheckerboard="0"
     inkscape:deskcolor="#d1d1d1"
     showgrid="false"
     inkscape:zoom="0.33898462"
     inkscape:cx="342.19842"
     inkscape:cy="497.0727"
     inkscape:window-width="1309"
     inkscape:window-height="661"
     inkscape:window-x="0"
     inkscape:window-y="0"
     inkscape:window-maximized="0"
     inkscape:current-layer="g15" />
  <g
     inkscape:groupmode="layer"
     inkscape:label="Image"
     id="g15"
     style="display:inline"
     transform="translate(-355.06761,-288.68617)">
    <path
       style="display:none;fill:#000000"
       d="m 257.5,789.72855 c -7.99073,-3.2847 -13.01885,-7.59541 -17.37167,-14.89304 -2.03028,-3.40384 -2.68658,-3.74897 -9.22681,-4.85212 -32.88662,-5.54705 -49.59595,-40.38625 -33.68613,-70.23612 11.77772,-22.09727 44.78448,-30.43552 69.16348,-17.47227 31.12915,16.55257 32.40566,61.97619 2.27274,80.87352 -2.83338,1.77691 -5.37661,3.40915 -5.65161,3.62719 -0.275,0.21805 0.56235,1.25771 1.86078,2.31037 3.36526,2.72826 8.47761,2.37848 15.20538,-1.04032 l 5.81357,-2.95425 4.45223,8.1452 4.45224,8.1452 -2.33962,1.84034 c -5.90222,4.64269 -13.68919,7.17486 -22.94458,7.46113 -5.48668,0.1697 -10.17111,-0.20304 -12,-0.95483 z M 250.02373,745.75 c 19.7731,-10.00323 14.93038,-44.76242 -6.4838,-46.53825 -7.11959,-0.59041 -11.99943,1.19512 -17.03878,6.23446 -18.47788,18.47788 0.93085,51.73297 23.52258,40.30379 z m 81.69131,24.21028 c -11.87857,-1.99712 -23.26192,-10.24694 -28.27375,-20.49075 -3.63478,-7.42922 -4.37088,-14.97954 -4.40857,-45.21953 L 299,678 h 14 14 v 29.2656 c 0,26.57313 0.17034,29.58321 1.85144,32.71782 2.71275,5.05821 6.27176,7.28644 12.35709,7.73654 6.29282,0.46544 10.68975,-1.79144 13.49292,-6.92574 1.59538,-2.9221 1.83298,-6.65482 2.10334,-33.04422 l 0.3048,-29.75 h 13.50792 13.50792 l -0.31272,32.25 -0.31271,32.25 -2.82391,6.11039 c -7.76799,16.8084 -26.74753,25.0846 -48.96105,21.34989 z m 139.54762,-0.41057 c -29.74916,-6.76765 -44.83001,-39.8156 -31.16467,-68.29378 1.25518,-2.61576 5.00912,-7.49398 8.34208,-10.84047 11.79117,-11.83907 28.88039,-16.81283 45.76071,-13.31849 7.33387,1.51817 18.59996,7.05144 23.61835,11.60002 l 4.19581,3.80301 -7.75119,9.15271 -7.75119,9.15271 -4.33061,-3.99182 c -9.33995,-8.60927 -20.81082,-10.26466 -29.38249,-4.24026 -11.15069,7.837 -13.04137,27.26202 -3.63047,37.29975 3.88848,4.14747 10.09965,7.07575 15.07028,7.10495 5.01567,0.0295 13.19917,-3.19203 18.08717,-7.12013 l 3.98988,-3.20636 8.02895,8.33634 8.02894,8.33633 -3.4371,2.94635 c -14.11682,12.1012 -31.53084,16.95166 -47.67445,13.27914 z M 398,723.5 V 678 H 411.5 425 V 723.5 769 H 411.5 398 Z m 132,0 V 678 h 13.5 13.5 v 17.55902 c 0,10.92285 0.36161,17.33553 0.9568,16.96768 0.52624,-0.32524 7.3209,-8.22679 15.09924,-17.55902 L 587.19848,678 h 16.11317 16.11317 l -4.51365,4.75 c -6.94667,7.31042 -16.80334,18.11755 -23.21145,25.44968 l -5.80028,6.63666 10.98795,16.83183 c 6.04337,9.25751 13.92661,21.44433 17.51832,27.08183 l 6.53036,10.25 h -16.31856 -16.31856 l -3.00361,-4.75 c -1.65198,-2.6125 -6.27142,-9.925 -10.26542,-16.25 -3.994,-6.325 -7.41375,-11.66661 -7.59945,-11.87024 -0.18569,-0.20363 -2.59136,2.04637 -5.34592,5 L 557.07624,746.5 557.03812,757.75 557,769 H 543.5 530 Z m 99,-0.0716 v -45.57155 l 27.25,0.32155 27.25,0.32155 6.30822,2.91269 c 7.4348,3.43287 13.32155,9.58508 15.61668,16.32092 C 706.35961,700.4768 707,705.72438 707,710.64058 707,734.28528 693.05322,745 662.27623,745 H 656 v 12 12 H 642.5 629 v -45.57155 z m 48.49659,-2.6784 c 3.29372,-2.84146 4.77535,-8.93772 3.41363,-14.04561 -1.56181,-5.85849 -5.41806,-7.69606 -16.16022,-7.70065 L 656,699 v 12 12 h 9.44424 c 8.35458,0 9.74515,-0.2596 12.05235,-2.25 z m 24.50148,47.5 c -10e-4,-0.4125 8.6039,-20.8875 19.12212,-45.5 L 740.24424,678 h 14.15645 14.15646 l 17.40811,42.25 c 9.57446,23.2375 18.01019,43.72459 18.74607,45.52687 l 1.33797,3.27688 -14.69161,-0.27688 -14.69162,-0.27687 -2.47914,-6.77153 -2.47914,-6.77153 -18.52046,0.27153 -18.52045,0.27153 -2.47166,6.75 -2.47166,6.75 h -13.86178 c -7.62398,0 -13.86265,-0.3375 -13.86371,-0.75 z M 764,734.43028 c 0,-0.82186 -9.04872,-25.68185 -9.91181,-27.23122 -0.43456,-0.78009 -2.79927,4.26314 -5.90645,12.59674 C 745.33178,727.43952 743,733.98744 743,734.34673 c 0,0.3593 4.725,0.65327 10.5,0.65327 5.775,0 10.5,-0.25638 10.5,-0.56972 z M 829.0937,754.6475 829.31412,740.295 812.76974,709.1475 796.22537,678 l 13.63731,0.003 13.63732,0.003 9.37711,17.51653 c 5.15741,9.63409 9.68451,17.70652 10.06023,17.93872 0.70741,0.43721 1.69694,-1.33697 12.667,-22.71127 l 6.54376,-12.75 h 13.42595 c 7.38427,0 13.42595,0.24762 13.42595,0.55026 0,0.30265 -7.2,14.2023 -16,30.88812 l -16,30.33785 v 14.61189 14.61188 h -14.06336 -14.06335 l 0.22041,-14.3525 z M 694.9416,641.05177 C 690.18231,639.60761 687.5331,637.6998 672,624.53053 663.475,617.30287 651.63595,607.28986 645.691,602.2794 l -10.809,-9.10992 -6.41771,4.85755 C 599.12406,620.23457 559.19853,632.36678 521,630.6823 488.13488,629.23301 459.17212,619.80002 432.5,601.8584 395.10147,576.70142 369.86204,539.05325 360.25953,494.10155 357.81118,482.64023 357.56761,479.5546 357.56761,460 c 0,-19.5824 0.24139,-22.63037 2.70652,-34.17367 6.9177,-32.39303 21.52775,-60.05649 44.14502,-83.58655 21.31278,-22.17292 45.26476,-37.00014 73.60278,-45.56301 34.54756,-10.4392 68.96185,-9.96998 103.47807,1.41086 55.58059,18.32629 97.82273,63.89486 111.88933,120.70026 1.32274,5.34166 2.69344,11.38244 3.04598,13.42395 0.71159,4.12062 0.76657,4.14185 13.56469,5.23784 9.56175,0.81885 14.97598,5.83025 13.50999,12.50483 -0.3483,1.58582 -6.11804,10.78847 -12.82163,20.45034 -6.7036,9.66187 -16.23836,23.47238 -21.18836,30.69003 -4.95,7.21764 -9.88763,13.74896 -10.97251,14.51405 -3.14952,2.22114 -10.00194,1.76511 -12.90649,-0.85893 -1.40237,-1.26693 -7.49852,-12.95459 -13.95251,-26.75 -6.30409,-13.475 -13.278,-28.325 -15.49759,-33 -5.25364,-11.06545 -5.69863,-13.0788 -3.73147,-16.88288 2.90599,-5.61955 5.40748,-6.49333 16.50697,-5.76593 l 9.84843,0.6454 -1.87348,-7.31324 C 648.31785,392.09901 624.68917,361.52845 593.5,343.62938 583.03415,337.62316 567.0863,331.68571 553.99972,328.92326 540.06441,325.98164 517.81854,325.75906 504,328.42298 455.59029,337.75533 417.47058,370.45633 401.32819,416.5 c -6.25457,17.84016 -8.80444,41.62833 -6.43146,60 3.79549,29.38471 17.38934,56.91463 38.54231,78.05493 43.77379,43.74754 110.69632,51.84141 163.70109,19.79864 4.32293,-2.61332 7.85987,-5.05927 7.85987,-5.43544 0,-0.37617 -3.0375,-3.26229 -6.75,-6.4136 -3.7125,-3.15131 -7.76019,-7.3665 -8.99488,-9.36709 -2.47254,-4.00634 -3.00158,-11.03157 -1.1915,-15.82234 1.30298,-3.44863 5.51102,-8.01022 9.13672,-9.90438 3.05851,-1.59784 11.45774,-1.87141 15.0874,-0.49142 1.32987,0.50561 18.34666,14.29843 37.8151,30.6507 19.46844,16.35226 41.83234,35.12979 49.69756,41.72782 7.86522,6.59804 14.91415,13.18328 15.66427,14.63386 3.87764,7.49854 2.5572,16.28174 -3.33332,22.17226 -4.91645,4.91646 -11.26812,6.7447 -17.18975,4.94783 z M 491.65499,514.17126 C 490.74474,513.16545 490,511.51346 490,510.50017 c 0,-1.01329 6.08873,-12.34428 13.53052,-25.17997 12.17435,-20.99847 13.41041,-23.56227 12.33212,-25.57891 -0.65912,-1.23271 -6.74785,-11.81179 -13.53052,-23.50907 C 495.54945,424.53494 490,413.87296 490,412.53892 490,407.22747 491.54004,407 527.5,407 c 36.30395,0 37.49906,0.18505 37.50087,5.8067 5.2e-4,1.62807 -5.14112,11.63541 -13,25.30234 C 544.85039,450.54402 539,461.26539 539,461.93433 c 0,0.66893 5.85,11.30755 13,23.64136 12.82906,22.13026 14.57356,26.45075 11.8,29.22431 -0.88715,0.88715 -10.23222,1.2 -35.84501,1.2 -32.29354,0 -34.75734,-0.12412 -36.3,-1.82874 z"
       id="path226"
       inkscape:label="path226"
       sodipodi:nodetypes="ssssssssscccsssssssssscccssssscccccssssssscccssssscccsscccccccccccccssscccsscsscccssssccccccccccsssscccccccssscccsssscccsscccccccccssssssssccccccssscssscccccccssscssssssssssssssssssssscsssssssssssssssssssssssssssssssss" />
    <path
       style="display:inline;fill:#000000;stroke:#000000;stroke-opacity:1"
       d="M 694.9416,641.05177 C 690.18231,639.60761 687.5331,637.6998 672,624.53053 663.475,617.30287 651.63595,607.28986 645.691,602.2794 l -10.809,-9.10992 -6.41771,4.85755 C 599.12406,620.23457 559.19853,632.36678 521,630.6823 488.13488,629.23301 459.17212,619.80002 432.5,601.8584 395.10147,576.70142 369.86204,539.05325 360.25953,494.10155 357.81118,482.64023 357.56761,479.5546 357.56761,460 c 0,-19.5824 0.24139,-22.63037 2.70652,-34.17367 6.9177,-32.39303 21.52775,-60.05649 44.14502,-83.58655 21.31278,-22.17292 45.26476,-37.00014 73.60278,-45.56301 34.54756,-10.4392 68.96185,-9.96998 103.47807,1.41086 55.58059,18.32629 97.82273,63.89486 111.88933,120.70026 1.32274,5.34166 2.69344,11.38244 3.04598,13.42395 0.71159,4.12062 0.76657,4.14185 13.56469,5.23784 9.56175,0.81885 14.97598,5.83025 13.50999,12.50483 -0.3483,1.58582 -6.11804,10.78847 -12.82163,20.45034 -6.7036,9.66187 -16.23836,23.47238 -21.18836,30.69003 -4.95,7.21764 -9.88763,13.74896 -10.97251,14.51405 -3.14952,2.22114 -10.00194,1.76511 -12.90649,-0.85893 -1.40237,-1.26693 -7.49852,-12.95459 -13.95251,-26.75 -6.30409,-13.475 -13.278,-28.325 -15.49759,-33 -5.25364,-11.06545 -5.69863,-13.0788 -3.73147,-16.88288 2.90599,-5.61955 5.40748,-6.49333 16.50697,-5.76593 l 9.84843,0.6454 -1.87348,-7.31324 C 648.31785,392.09901 624.68917,361.52845 593.5,343.62938 583.03415,337.62316 567.0863,331.68571 553.99972,328.92326 540.06441,325.98164 517.81854,325.75906 504,328.42298 455.59029,337.75533 417.47058,370.45633 401.32819,416.5 c -6.25457,17.84016 -8.80444,41.62833 -6.43146,60 3.79549,29.38471 17.38934,56.91463 38.54231,78.05493 43.77379,43.74754 110.69632,51.84141 163.70109,19.79864 4.32293,-2.61332 7.85987,-5.05927 7.85987,-5.43544 0,-0.37617 -3.0375,-3.26229 -6.75,-6.4136 -3.7125,-3.15131 -7.76019,-7.3665 -8.99488,-9.36709 -2.47254,-4.00634 -3.00158,-11.03157 -1.1915,-15.82234 1.30298,-3.44863 5.51102,-8.01022 9.13672,-9.90438 3.05851,-1.59784 11.45774,-1.87141 15.0874,-0.49142 1.32987,0.50561 18.34666,14.29843 37.8151,30.6507 19.46844,16.35226 41.83234,35.12979 49.69756,41.72782 7.86522,6.59804 14.91415,13.18328 15.66427,14.63386 3.87764,7.49854 2.5572,16.28174 -3.33332,22.17226 -4.91645,4.91646 -11.26812,6.7447 -17.18975,4.94783 z M 491.65499,514.17126 C 490.74474,513.16545 490,511.51346 490,510.50017 c 0,-1.01329 6.08873,-12.34428 13.53052,-25.17997 12.17435,-20.99847 13.41041,-23.56227 12.33212,-25.57891 -0.65912,-1.23271 -6.74785,-11.81179 -13.53052,-23.50907 C 495.54945,424.53494 490,413.87296 490,412.53892 490,407.22747 491.54004,407 527.5,407 c 36.30395,0 37.49906,0.18505 37.50087,5.8067 5.2e-4,1.62807 -5.14112,11.63541 -13,25.30234 C 544.85039,450.54402 539,461.26539 539,461.93433 c 0,0.66893 5.85,11.30755 13,23.64136 12.82906,22.13026 14.57356,26.45075 11.8,29.22431 -0.88715,0.88715 -10.23222,1.2 -35.84501,1.2 -32.29354,0 -34.75734,-0.12412 -36.3,-1.82874 z"
       id="path455"
       inkscape:label="path226"
       sodipodi:nodetypes="ssscssssssssssssssssssssscsssssssssssssssssssssssssssssssss" />
  </g>
</svg>
