<svg width="85" height="85" viewBox="0 0 85 85" fill="none" xmlns="http://www.w3.org/2000/svg">
<path d="M42.0079 41.642L48.131 52.6822C48.6442 53.6092 48.0031 54.7674 46.9751 54.7674H32.2094C31.1815 54.7674 30.5388 53.6092 31.0536 52.6822L37.1766 41.642L31.0536 30.6001C30.5404 29.6732 31.1815 28.5149 32.2094 28.5149H46.9751C48.0031 28.5149 48.6458 29.6732 48.131 30.6001L42.0079 41.642Z" fill="#EDFF6E"/>
<path d="M63.8909 38.0566L70.9332 53.5585C71.7437 55.3409 74.1034 55.5439 75.1825 53.9213L84.559 39.8207C85.6381 38.1997 84.6245 35.9697 82.7365 35.8083L78.802 35.4721C78.3288 31.9324 77.416 28.4826 76.0682 25.1692C74.0747 20.2615 71.2193 15.8547 67.5855 12.0703C63.9516 8.28765 59.7182 5.31541 55.002 3.24017C50.118 1.09004 44.9334 0 39.5905 0C34.2476 0 29.063 1.09004 24.1789 3.24017C19.4643 5.31541 15.2309 8.28765 11.5955 12.0703C7.96158 15.853 5.10628 20.2598 3.11268 25.1692C1.04715 30.2533 0 35.6502 0 41.2119C0 46.7736 1.04715 52.1706 3.11268 57.2547C5.10628 62.1624 7.96158 66.5691 11.5955 70.3535C15.2293 74.1362 19.4627 77.1084 24.1789 79.1837C29.063 81.3338 34.2476 82.4239 39.5905 82.4239C44.4218 82.4239 49.1444 81.5268 53.6255 79.7578C57.5424 78.2118 61.1699 76.0417 64.4312 73.3008L76.6054 83.9582C77.4048 84.6588 78.38 85 79.3488 85C80.5654 85 81.7724 84.4625 82.6166 83.4174C84.1337 81.5402 83.9003 78.7393 82.097 77.16L60.3145 58.0918C58.5112 56.5125 55.8206 56.7554 54.3034 58.6326C52.7862 60.5098 53.0196 63.3107 54.823 64.89L57.7438 67.4462C52.4809 71.3936 46.1308 73.5421 39.5921 73.5421C22.4667 73.5421 8.53392 59.0387 8.53392 41.2119C8.53392 23.3852 22.4667 8.88176 39.5921 8.88176C54.5832 8.88176 67.1266 19.9952 70.0203 34.7216L66.3177 34.4054C64.428 34.2456 63.0803 36.2726 63.8909 38.0566Z" fill="#5A36D3"/>
</svg>
