<svg width="980" height="246" viewBox="0 0 980 246" fill="none" xmlns="http://www.w3.org/2000/svg">
<path d="M49.1184 166.923H922.981V221.402L490.112 208.989L49.1184 221.402V166.923Z" fill="#EDFF6E"/>
<path d="M75.336 90.1597V33.4868H113.524V43.3658H87.3182V56.8699H111.559V66.7489H87.3182V80.2807H113.635V90.1597H75.336Z" fill="#000212"/>
<path d="M132.68 47.655L140.484 62.5151L148.481 47.655H160.574L148.26 68.9074L160.906 90.1597H148.868L140.484 75.4657L132.237 90.1597H120.061L132.68 68.9074L120.504 47.655H132.68Z" fill="#000212"/>
<path d="M167.575 106.099V47.655H179.197V54.7945H179.723C180.24 53.6507 180.987 52.4884 181.965 51.3078C182.961 50.1086 184.252 49.1124 185.839 48.3191C187.444 47.5074 189.436 47.1016 191.816 47.1016C194.915 47.1016 197.775 47.9133 200.394 49.5367C203.014 51.1417 205.108 53.5677 206.676 56.8146C208.244 60.043 209.028 64.0924 209.028 68.9627C209.028 73.7039 208.262 77.7072 206.731 80.9725C205.219 84.2194 203.152 86.6822 200.533 88.361C197.931 90.0214 195.017 90.8515 191.788 90.8515C189.501 90.8515 187.554 90.4734 185.949 89.717C184.363 88.9606 183.062 88.0105 182.048 86.8667C181.033 85.7045 180.258 84.533 179.723 83.3523H179.363V106.099H167.575ZM179.114 68.9074C179.114 71.4348 179.465 73.6393 180.166 75.5211C180.867 77.4028 181.882 78.8694 183.21 79.921C184.538 80.9541 186.152 81.4706 188.052 81.4706C189.971 81.4706 191.595 80.9448 192.923 79.8933C194.251 78.8233 195.256 77.3474 195.939 75.4657C196.64 73.5656 196.991 71.3794 196.991 68.9074C196.991 66.4538 196.649 64.2953 195.967 62.432C195.284 60.5688 194.279 59.1114 192.95 58.0598C191.622 57.0083 189.99 56.4825 188.052 56.4825C186.134 56.4825 184.51 56.9898 183.182 58.0045C181.872 59.0191 180.867 60.4581 180.166 62.3214C179.465 64.1846 179.114 66.38 179.114 68.9074Z" fill="#000212"/>
<path d="M236.258 90.9899C231.885 90.9899 228.122 90.1044 224.967 88.3334C221.831 86.5439 219.414 84.0165 217.717 80.7511C216.02 77.4674 215.171 73.584 215.171 69.1011C215.171 64.7288 216.02 60.8916 217.717 57.5894C219.414 54.2871 221.803 51.7136 224.884 49.8688C227.984 48.024 231.618 47.1016 235.787 47.1016C238.591 47.1016 241.202 47.5535 243.619 48.4575C246.054 49.343 248.175 50.6805 249.983 52.47C251.81 54.2595 253.23 56.5102 254.245 59.222C255.259 61.9155 255.767 65.0701 255.767 68.686V71.9237H219.876V64.6182H244.67C244.67 62.9209 244.301 61.4174 243.563 60.1076C242.825 58.7977 241.801 57.7739 240.492 57.0359C239.2 56.2796 237.697 55.9014 235.981 55.9014C234.191 55.9014 232.605 56.3165 231.221 57.1466C229.856 57.9583 228.786 59.056 228.011 60.4396C227.236 61.8048 226.84 63.3268 226.821 65.0056V71.9513C226.821 74.0544 227.209 75.8716 227.984 77.4028C228.777 78.934 229.893 80.1147 231.332 80.9448C232.771 81.775 234.477 82.1901 236.451 82.1901C237.761 82.1901 238.96 82.0056 240.049 81.6367C241.137 81.2677 242.069 80.7142 242.844 79.9763C243.619 79.2384 244.209 78.3344 244.615 77.2644L255.518 77.9839C254.964 80.6036 253.83 82.8911 252.114 84.8466C250.417 86.7837 248.221 88.2965 245.528 89.3849C242.853 90.4549 239.763 90.9899 236.258 90.9899Z" fill="#000212"/>
<path d="M263.46 90.1597V47.655H274.888V55.0712H275.331C276.106 52.4331 277.406 50.4407 279.233 49.094C281.059 47.7288 283.162 47.0462 285.542 47.0462C286.132 47.0462 286.769 47.0831 287.452 47.1569C288.134 47.2307 288.734 47.3322 289.25 47.4613V57.9214C288.697 57.7554 287.931 57.6078 286.953 57.4787C285.976 57.3496 285.081 57.285 284.269 57.285C282.535 57.285 280.985 57.6632 279.62 58.4196C278.274 59.1575 277.204 60.1906 276.41 61.5189C275.635 62.8471 275.248 64.3783 275.248 66.1125V90.1597H263.46Z" fill="#000212"/>
<path d="M295.345 90.1597V47.655H307.133V90.1597H295.345ZM301.267 42.1759C299.514 42.1759 298.011 41.5948 296.756 40.4325C295.52 39.2518 294.902 37.8405 294.902 36.1987C294.902 34.5752 295.52 33.1824 296.756 32.0201C298.011 30.8394 299.514 30.2491 301.267 30.2491C303.02 30.2491 304.514 30.8394 305.75 32.0201C307.004 33.1824 307.632 34.5752 307.632 36.1987C307.632 37.8405 307.004 39.2518 305.75 40.4325C304.514 41.5948 303.02 42.1759 301.267 42.1759Z" fill="#000212"/>
<path d="M335.947 90.9899C331.575 90.9899 327.812 90.1044 324.657 88.3334C321.521 86.5439 319.104 84.0165 317.407 80.7511C315.71 77.4674 314.861 73.584 314.861 69.1011C314.861 64.7288 315.71 60.8916 317.407 57.5894C319.104 54.2871 321.493 51.7136 324.574 49.8688C327.673 48.024 331.308 47.1016 335.477 47.1016C338.281 47.1016 340.891 47.5535 343.308 48.4575C345.743 49.343 347.865 50.6805 349.673 52.47C351.499 54.2595 352.92 56.5102 353.934 59.222C354.949 61.9155 355.456 65.0701 355.456 68.686V71.9237H319.565V64.6182H344.36C344.36 62.9209 343.991 61.4174 343.253 60.1076C342.515 58.7977 341.491 57.7739 340.181 57.0359C338.89 56.2796 337.386 55.9014 335.671 55.9014C333.881 55.9014 332.295 56.3165 330.911 57.1466C329.546 57.9583 328.476 59.056 327.701 60.4396C326.926 61.8048 326.529 63.3268 326.511 65.0056V71.9513C326.511 74.0544 326.898 75.8716 327.673 77.4028C328.467 78.934 329.583 80.1147 331.022 80.9448C332.461 81.775 334.167 82.1901 336.141 82.1901C337.451 82.1901 338.65 82.0056 339.738 81.6367C340.827 81.2677 341.759 80.7142 342.533 79.9763C343.308 79.2384 343.899 78.3344 344.304 77.2644L355.207 77.9839C354.654 80.6036 353.519 82.8911 351.804 84.8466C350.106 86.7837 347.911 88.2965 345.218 89.3849C342.543 90.4549 339.452 90.9899 335.947 90.9899Z" fill="#000212"/>
<path d="M374.938 65.5867V90.1597H363.149V47.655H374.384V55.1542H374.882C375.823 52.6821 377.401 50.7266 379.614 49.2877C381.828 47.8303 384.512 47.1016 387.667 47.1016C390.619 47.1016 393.192 47.7472 395.388 49.0386C397.583 50.33 399.289 52.1748 400.507 54.5731C401.725 56.9529 402.333 59.7939 402.333 63.0962V90.1597H390.545V65.1993C390.563 62.5981 389.899 60.5688 388.552 59.1114C387.206 57.6355 385.352 56.8976 382.99 56.8976C381.404 56.8976 380.002 57.2389 378.784 57.9214C377.585 58.604 376.644 59.6002 375.962 60.9101C375.297 62.2014 374.956 63.7603 374.938 65.5867Z" fill="#000212"/>
<path d="M430.829 90.9899C426.475 90.9899 422.73 90.0675 419.594 88.2227C416.476 86.3594 414.078 83.7767 412.399 80.4744C410.739 77.1722 409.909 73.3718 409.909 69.0734C409.909 64.7196 410.748 60.9008 412.427 57.6171C414.124 54.3148 416.532 51.7413 419.649 49.8965C422.767 48.0332 426.475 47.1016 430.774 47.1016C434.482 47.1016 437.729 47.7749 440.514 49.1216C443.3 50.4684 445.504 52.3593 447.128 54.7945C448.751 57.2296 449.646 60.0891 449.812 63.3729H438.688C438.374 61.2514 437.544 59.5449 436.197 58.2535C434.869 56.9437 433.126 56.2888 430.967 56.2888C429.141 56.2888 427.545 56.7869 426.18 57.7831C424.833 58.7608 423.782 60.1906 423.025 62.0723C422.269 63.954 421.891 66.2324 421.891 68.9074C421.891 71.6193 422.26 73.9253 422.998 75.8255C423.754 77.7256 424.815 79.1738 426.18 80.17C427.545 81.1662 429.141 81.6643 430.967 81.6643C432.314 81.6643 433.522 81.3876 434.592 80.8342C435.681 80.2807 436.576 79.4782 437.277 78.4267C437.996 77.3567 438.466 76.0745 438.688 74.5802H449.812C449.628 77.8271 448.742 80.6866 447.156 83.1586C445.587 85.6123 443.42 87.5309 440.653 88.9145C437.885 90.2981 434.611 90.9899 430.829 90.9899Z" fill="#000212"/>
<path d="M476.73 90.9899C472.358 90.9899 468.595 90.1044 465.44 88.3334C462.304 86.5439 459.887 84.0165 458.19 80.7511C456.493 77.4674 455.644 73.584 455.644 69.1011C455.644 64.7288 456.493 60.8916 458.19 57.5894C459.887 54.2871 462.276 51.7136 465.357 49.8688C468.456 48.024 472.091 47.1016 476.26 47.1016C479.064 47.1016 481.675 47.5535 484.091 48.4575C486.526 49.343 488.648 50.6805 490.456 52.47C492.282 54.2595 493.703 56.5102 494.717 59.222C495.732 61.9155 496.239 65.0701 496.239 68.686V71.9237H460.348V64.6182H485.143C485.143 62.9209 484.774 61.4174 484.036 60.1076C483.298 58.7977 482.274 57.7739 480.964 57.0359C479.673 56.2796 478.169 55.9014 476.454 55.9014C474.664 55.9014 473.078 56.3165 471.694 57.1466C470.329 57.9583 469.259 59.056 468.484 60.4396C467.709 61.8048 467.313 63.3268 467.294 65.0056V71.9513C467.294 74.0544 467.682 75.8716 468.456 77.4028C469.25 78.934 470.366 80.1147 471.805 80.9448C473.244 81.775 474.95 82.1901 476.924 82.1901C478.234 82.1901 479.433 82.0056 480.522 81.6367C481.61 81.2677 482.542 80.7142 483.316 79.9763C484.091 79.2384 484.682 78.3344 485.087 77.2644L495.99 77.9839C495.437 80.6036 494.302 82.8911 492.587 84.8466C490.889 86.7837 488.694 88.2965 486.001 89.3849C483.326 90.4549 480.236 90.9899 476.73 90.9899Z" fill="#000212"/>
<path d="M557.333 59.7755L546.541 60.4396C546.356 59.5172 545.96 58.687 545.351 57.9491C544.742 57.1927 543.94 56.5932 542.943 56.1504C541.966 55.6892 540.794 55.4586 539.429 55.4586C537.603 55.4586 536.062 55.846 534.808 56.6208C533.553 57.3772 532.926 58.3919 532.926 59.6648C532.926 60.6795 533.332 61.5373 534.144 62.2383C534.955 62.9394 536.348 63.502 538.322 63.9263L546.015 65.476C550.147 66.3246 553.228 67.6898 555.258 69.5715C557.287 71.4532 558.302 73.9253 558.302 76.9877C558.302 79.7734 557.481 82.2178 555.839 84.3209C554.215 86.424 551.983 88.0659 549.142 89.2466C546.319 90.4088 543.063 90.9899 539.374 90.9899C533.747 90.9899 529.264 89.8185 525.925 87.4755C522.604 85.1142 520.658 81.9042 520.086 77.8455L531.681 77.2367C532.031 78.9524 532.88 80.2623 534.227 81.1662C535.573 82.0517 537.298 82.4945 539.401 82.4945C541.468 82.4945 543.128 82.0979 544.382 81.3046C545.655 80.4929 546.301 79.4505 546.319 78.1776C546.301 77.1076 545.849 76.2313 544.964 75.5487C544.078 74.8477 542.713 74.3127 540.868 73.9437L533.507 72.4771C529.356 71.6469 526.266 70.208 524.237 68.1602C522.226 66.1125 521.221 63.502 521.221 60.3289C521.221 57.5986 521.959 55.2465 523.434 53.2725C524.929 51.2985 527.023 49.7766 529.716 48.7066C532.428 47.6366 535.601 47.1016 539.235 47.1016C544.604 47.1016 548.828 48.2361 551.909 50.5053C555.009 52.7744 556.817 55.8645 557.333 59.7755Z" fill="#000212"/>
<path d="M585.095 90.9899C580.723 90.9899 576.96 90.1044 573.805 88.3334C570.669 86.5439 568.252 84.0165 566.555 80.7511C564.858 77.4674 564.009 73.584 564.009 69.1011C564.009 64.7288 564.858 60.8916 566.555 57.5894C568.252 54.2871 570.641 51.7136 573.722 49.8688C576.821 48.024 580.456 47.1016 584.625 47.1016C587.429 47.1016 590.039 47.5535 592.456 48.4575C594.891 49.343 597.013 50.6805 598.821 52.47C600.647 54.2595 602.068 56.5102 603.082 59.222C604.097 61.9155 604.604 65.0701 604.604 68.686V71.9237H568.713V64.6182H593.508C593.508 62.9209 593.139 61.4174 592.401 60.1076C591.663 58.7977 590.639 57.7739 589.329 57.0359C588.038 56.2796 586.534 55.9014 584.819 55.9014C583.029 55.9014 581.443 56.3165 580.059 57.1466C578.694 57.9583 577.624 59.056 576.849 60.4396C576.074 61.8048 575.678 63.3268 575.659 65.0056V71.9513C575.659 74.0544 576.046 75.8716 576.821 77.4028C577.615 78.934 578.731 80.1147 580.17 80.9448C581.609 81.775 583.315 82.1901 585.289 82.1901C586.599 82.1901 587.798 82.0056 588.886 81.6367C589.975 81.2677 590.907 80.7142 591.681 79.9763C592.456 79.2384 593.047 78.3344 593.452 77.2644L604.355 77.9839C603.802 80.6036 602.667 82.8911 600.952 84.8466C599.254 86.7837 597.059 88.2965 594.366 89.3849C591.691 90.4549 588.601 90.9899 585.095 90.9899Z" fill="#000212"/>
<path d="M624.418 90.9622C621.706 90.9622 619.289 90.4918 617.168 89.5509C615.046 88.5916 613.367 87.1803 612.131 85.3171C610.914 83.4354 610.305 81.0924 610.305 78.2883C610.305 75.9269 610.738 73.9437 611.605 72.3387C612.473 70.7337 613.653 69.4424 615.148 68.4646C616.642 67.4869 618.339 66.7489 620.239 66.2508C622.158 65.7527 624.169 65.4022 626.272 65.1993C628.744 64.941 630.736 64.7012 632.249 64.4798C633.762 64.24 634.859 63.8895 635.542 63.4282C636.225 62.967 636.566 62.2845 636.566 61.3805V61.2145C636.566 59.4619 636.012 58.1059 634.906 57.1466C633.817 56.1873 632.267 55.7077 630.257 55.7077C628.135 55.7077 626.447 56.1781 625.193 57.1189C623.938 58.0414 623.108 59.2036 622.702 60.6057L611.799 59.7201C612.353 57.1374 613.441 54.9052 615.065 53.0234C616.688 51.1233 618.782 49.6659 621.346 48.6512C623.929 47.6181 626.917 47.1016 630.312 47.1016C632.673 47.1016 634.933 47.3783 637.092 47.9317C639.269 48.4852 641.196 49.343 642.875 50.5053C644.572 51.6675 645.91 53.1618 646.888 54.9882C647.865 56.7961 648.354 58.9638 648.354 61.4912V90.1597H637.175V84.2655H636.843C636.16 85.5938 635.247 86.7653 634.103 87.7799C632.959 88.7761 631.585 89.5602 629.98 90.1321C628.375 90.6855 626.521 90.9622 624.418 90.9622ZM627.794 82.8266C629.528 82.8266 631.059 82.4853 632.387 81.8027C633.716 81.1017 634.758 80.1608 635.514 78.9801C636.271 77.7994 636.649 76.4619 636.649 74.9676V70.457C636.28 70.6969 635.773 70.9182 635.127 71.1212C634.5 71.3056 633.789 71.4809 632.996 71.6469C632.203 71.7945 631.41 71.9329 630.616 72.062C629.823 72.1727 629.104 72.2742 628.458 72.3664C627.074 72.5693 625.866 72.8922 624.833 73.3349C623.8 73.7777 622.997 74.3773 622.425 75.1337C621.853 75.8716 621.568 76.794 621.568 77.9009C621.568 79.5059 622.149 80.7327 623.311 81.5813C624.492 82.4115 625.986 82.8266 627.794 82.8266Z" fill="#000212"/>
<path d="M657.5 90.1597V47.655H668.735V55.1542H669.233C670.119 52.6637 671.595 50.699 673.661 49.26C675.727 47.821 678.199 47.1016 681.077 47.1016C683.992 47.1016 686.473 47.8303 688.521 49.2877C690.569 50.7266 691.934 52.6821 692.616 55.1542H693.059C693.926 52.719 695.494 50.7728 697.763 49.3153C700.051 47.8395 702.754 47.1016 705.871 47.1016C709.838 47.1016 713.057 48.3653 715.529 50.8927C718.02 53.4016 719.265 56.9621 719.265 61.5742V90.1597H707.504V63.8987C707.504 61.5373 706.877 59.7663 705.622 58.5856C704.368 57.4049 702.8 56.8146 700.918 56.8146C698.778 56.8146 697.108 57.4971 695.909 58.8623C694.71 60.209 694.111 61.9893 694.111 64.2031V90.1597H682.682V63.6496C682.682 61.565 682.082 59.9046 680.883 58.6686C679.703 57.4326 678.144 56.8146 676.207 56.8146C674.897 56.8146 673.716 57.1466 672.665 57.8108C671.631 58.4564 670.811 59.3696 670.202 60.5503C669.593 61.7126 669.289 63.0777 669.289 64.6458V90.1597H657.5Z" fill="#000212"/>
<path d="M740.365 33.4868V90.1597H728.576V33.4868H740.365Z" fill="#000212"/>
<path d="M769.179 90.9899C764.807 90.9899 761.043 90.1044 757.888 88.3334C754.752 86.5439 752.336 84.0165 750.638 80.7511C748.941 77.4674 748.092 73.584 748.092 69.1011C748.092 64.7288 748.941 60.8916 750.638 57.5894C752.336 54.2871 754.725 51.7136 757.805 49.8688C760.905 48.024 764.539 47.1016 768.708 47.1016C771.513 47.1016 774.123 47.5535 776.54 48.4575C778.975 49.343 781.096 50.6805 782.904 52.47C784.731 54.2595 786.151 56.5102 787.166 59.222C788.18 61.9155 788.688 65.0701 788.688 68.686V71.9237H752.797V64.6182H777.591C777.591 62.9209 777.222 61.4174 776.484 60.1076C775.746 58.7977 774.722 57.7739 773.413 57.0359C772.121 56.2796 770.618 55.9014 768.902 55.9014C767.113 55.9014 765.526 56.3165 764.142 57.1466C762.777 57.9583 761.707 59.056 760.932 60.4396C760.158 61.8048 759.761 63.3268 759.742 65.0056V71.9513C759.742 74.0544 760.13 75.8716 760.905 77.4028C761.698 78.934 762.814 80.1147 764.253 80.9448C765.692 81.775 767.399 82.1901 769.372 82.1901C770.682 82.1901 771.881 82.0056 772.97 81.6367C774.058 81.2677 774.99 80.7142 775.765 79.9763C776.54 79.2384 777.13 78.3344 777.536 77.2644L788.439 77.9839C787.885 80.6036 786.751 82.8911 785.035 84.8466C783.338 86.7837 781.142 88.2965 778.449 89.3849C775.774 90.4549 772.684 90.9899 769.179 90.9899Z" fill="#000212"/>
<path d="M831.746 59.7755L820.954 60.4396C820.769 59.5172 820.373 58.687 819.764 57.9491C819.155 57.1927 818.353 56.5932 817.356 56.1504C816.379 55.6892 815.207 55.4586 813.842 55.4586C812.016 55.4586 810.475 55.846 809.221 56.6208C807.966 57.3772 807.339 58.3919 807.339 59.6648C807.339 60.6795 807.745 61.5373 808.557 62.2383C809.368 62.9394 810.761 63.502 812.735 63.9263L820.428 65.476C824.56 66.3246 827.641 67.6898 829.671 69.5715C831.7 71.4532 832.714 73.9253 832.714 76.9877C832.714 79.7734 831.894 82.2178 830.252 84.3209C828.628 86.424 826.396 88.0659 823.555 89.2466C820.732 90.4088 817.476 90.9899 813.787 90.9899C808.16 90.9899 803.677 89.8185 800.338 87.4755C797.017 85.1142 795.071 81.9042 794.499 77.8455L806.094 77.2367C806.444 78.9524 807.293 80.2623 808.64 81.1662C809.986 82.0517 811.711 82.4945 813.814 82.4945C815.88 82.4945 817.541 82.0979 818.795 81.3046C820.068 80.4929 820.714 79.4505 820.732 78.1776C820.714 77.1076 820.262 76.2313 819.376 75.5487C818.491 74.8477 817.126 74.3127 815.281 73.9437L807.92 72.4771C803.769 71.6469 800.679 70.208 798.65 68.1602C796.639 66.1125 795.634 63.502 795.634 60.3289C795.634 57.5986 796.371 55.2465 797.847 53.2725C799.342 51.2985 801.436 49.7766 804.129 48.7066C806.841 47.6366 810.014 47.1016 813.648 47.1016C819.017 47.1016 823.241 48.2361 826.322 50.5053C829.422 52.7744 831.229 55.8645 831.746 59.7755Z" fill="#000212"/>
<path d="M875.503 59.7755L864.711 60.4396C864.526 59.5172 864.13 58.687 863.521 57.9491C862.912 57.1927 862.109 56.5932 861.113 56.1504C860.135 55.6892 858.964 55.4586 857.599 55.4586C855.773 55.4586 854.232 55.846 852.978 56.6208C851.723 57.3772 851.096 58.3919 851.096 59.6648C851.096 60.6795 851.502 61.5373 852.313 62.2383C853.125 62.9394 854.518 63.502 856.492 63.9263L864.185 65.476C868.317 66.3246 871.398 67.6898 873.427 69.5715C875.457 71.4532 876.471 73.9253 876.471 76.9877C876.471 79.7734 875.65 82.2178 874.009 84.3209C872.385 86.424 870.153 88.0659 867.312 89.2466C864.489 90.4088 861.233 90.9899 857.544 90.9899C851.917 90.9899 847.434 89.8185 844.095 87.4755C840.774 85.1142 838.828 81.9042 838.256 77.8455L849.851 77.2367C850.201 78.9524 851.05 80.2623 852.396 81.1662C853.743 82.0517 855.468 82.4945 857.571 82.4945C859.637 82.4945 861.298 82.0979 862.552 81.3046C863.825 80.4929 864.471 79.4505 864.489 78.1776C864.471 77.1076 864.019 76.2313 863.133 75.5487C862.248 74.8477 860.883 74.3127 859.038 73.9437L851.677 72.4771C847.526 71.6469 844.436 70.208 842.407 68.1602C840.396 66.1125 839.39 63.502 839.39 60.3289C839.39 57.5986 840.128 55.2465 841.604 53.2725C843.099 51.2985 845.192 49.7766 847.886 48.7066C850.598 47.6366 853.771 47.1016 857.405 47.1016C862.774 47.1016 866.998 48.2361 870.079 50.5053C873.178 52.7744 874.986 55.8645 875.503 59.7755Z" fill="#000212"/>
<path d="M50.0331 184.16V127.487H62.0152V174.281H86.3116V184.16H50.0331Z" fill="#000212"/>
<path d="M94.0252 184.16V141.655H105.814V184.16H94.0252ZM99.9471 136.176C98.1945 136.176 96.691 135.595 95.4365 134.433C94.2005 133.252 93.5825 131.841 93.5825 130.199C93.5825 128.575 94.2005 127.182 95.4365 126.02C96.691 124.839 98.1945 124.249 99.9471 124.249C101.7 124.249 103.194 124.839 104.43 126.02C105.685 127.182 106.312 128.575 106.312 130.199C106.312 131.841 105.685 133.252 104.43 134.433C103.194 135.595 101.7 136.176 99.9471 136.176Z" fill="#000212"/>
<path d="M134.406 200.985C130.587 200.985 127.313 200.459 124.582 199.407C121.871 198.374 119.712 196.963 118.107 195.173C116.502 193.384 115.46 191.373 114.98 189.141L125.883 187.674C126.215 188.523 126.741 189.316 127.46 190.054C128.18 190.792 129.13 191.382 130.311 191.825C131.51 192.286 132.967 192.517 134.683 192.517C137.247 192.517 139.359 191.89 141.02 190.635C142.699 189.399 143.538 187.324 143.538 184.409V176.633H143.04C142.523 177.814 141.749 178.93 140.715 179.981C139.682 181.033 138.354 181.891 136.731 182.555C135.107 183.219 133.17 183.551 130.919 183.551C127.728 183.551 124.822 182.813 122.203 181.337C119.601 179.843 117.526 177.564 115.976 174.502C114.445 171.421 113.68 167.529 113.68 162.824C113.68 158.009 114.464 153.988 116.032 150.759C117.6 147.531 119.684 145.114 122.286 143.509C124.905 141.904 127.774 141.102 130.892 141.102C133.272 141.102 135.264 141.507 136.869 142.319C138.474 143.112 139.765 144.109 140.743 145.308C141.739 146.488 142.505 147.651 143.04 148.794H143.483V141.655H155.188V184.575C155.188 188.191 154.303 191.216 152.532 193.651C150.76 196.087 148.307 197.913 145.171 199.13C142.053 200.367 138.465 200.985 134.406 200.985ZM134.655 174.696C136.555 174.696 138.16 174.225 139.47 173.285C140.798 172.325 141.813 170.96 142.514 169.189C143.234 167.4 143.593 165.26 143.593 162.769C143.593 160.279 143.243 158.12 142.542 156.294C141.841 154.449 140.826 153.019 139.498 152.004C138.17 150.99 136.555 150.482 134.655 150.482C132.718 150.482 131.085 151.008 129.757 152.06C128.429 153.093 127.423 154.532 126.741 156.377C126.058 158.222 125.717 160.352 125.717 162.769C125.717 165.223 126.058 167.344 126.741 169.134C127.442 170.905 128.447 172.279 129.757 173.257C131.085 174.216 132.718 174.696 134.655 174.696Z" fill="#000212"/>
<path d="M176.357 159.587V184.16H164.569V127.487H176.025V149.154H176.523C177.483 146.645 179.032 144.681 181.172 143.26C183.312 141.821 185.997 141.102 189.225 141.102C192.177 141.102 194.75 141.747 196.946 143.039C199.159 144.312 200.875 146.147 202.093 148.545C203.329 150.925 203.938 153.775 203.919 157.096V184.16H192.131V159.199C192.149 156.58 191.485 154.541 190.138 153.084C188.81 151.626 186.947 150.898 184.548 150.898C182.943 150.898 181.523 151.239 180.287 151.921C179.069 152.604 178.11 153.6 177.409 154.91C176.726 156.201 176.376 157.76 176.357 159.587Z" fill="#000212"/>
<path d="M235.805 141.655V150.51H210.208V141.655H235.805ZM216.019 131.472H227.807V171.098C227.807 172.187 227.973 173.035 228.305 173.644C228.637 174.235 229.099 174.65 229.689 174.889C230.298 175.129 230.999 175.249 231.792 175.249C232.345 175.249 232.899 175.203 233.452 175.111C234.006 175 234.43 174.917 234.725 174.862L236.579 183.634C235.989 183.818 235.159 184.031 234.089 184.27C233.019 184.529 231.718 184.686 230.187 184.741C227.346 184.852 224.856 184.473 222.716 183.606C220.594 182.739 218.943 181.393 217.762 179.566C216.581 177.74 216 175.434 216.019 172.648V131.472Z" fill="#000212"/>
<path d="M255.272 159.587V184.16H243.484V141.655H254.719V149.154H255.217C256.158 146.682 257.735 144.727 259.949 143.288C262.162 141.83 264.847 141.102 268.001 141.102C270.953 141.102 273.527 141.747 275.722 143.039C277.917 144.33 279.624 146.175 280.841 148.573C282.059 150.953 282.668 153.794 282.668 157.096V184.16H270.879V159.199C270.898 156.598 270.234 154.569 268.887 153.111C267.54 151.635 265.686 150.898 263.325 150.898C261.738 150.898 260.336 151.239 259.118 151.921C257.919 152.604 256.978 153.6 256.296 154.91C255.632 156.201 255.29 157.76 255.272 159.587Z" fill="#000212"/>
<path d="M291.959 184.16V141.655H303.747V184.16H291.959ZM297.881 136.176C296.128 136.176 294.624 135.595 293.37 134.433C292.134 133.252 291.516 131.841 291.516 130.199C291.516 128.575 292.134 127.182 293.37 126.02C294.624 124.839 296.128 124.249 297.881 124.249C299.633 124.249 301.127 124.839 302.363 126.02C303.618 127.182 304.245 128.575 304.245 130.199C304.245 131.841 303.618 133.252 302.363 134.433C301.127 135.595 299.633 136.176 297.881 136.176Z" fill="#000212"/>
<path d="M324.979 159.587V184.16H313.19V141.655H324.425V149.154H324.923C325.864 146.682 327.442 144.727 329.655 143.288C331.869 141.83 334.553 141.102 337.708 141.102C340.66 141.102 343.233 141.747 345.429 143.039C347.624 144.33 349.33 146.175 350.548 148.573C351.766 150.953 352.374 153.794 352.374 157.096V184.16H340.586V159.199C340.604 156.598 339.94 154.569 338.594 153.111C337.247 151.635 335.393 150.898 333.031 150.898C331.445 150.898 330.043 151.239 328.825 151.921C327.626 152.604 326.685 153.6 326.003 154.91C325.338 156.201 324.997 157.76 324.979 159.587Z" fill="#000212"/>
<path d="M380.815 200.985C376.996 200.985 373.721 200.459 370.991 199.407C368.279 198.374 366.121 196.963 364.516 195.173C362.911 193.384 361.868 191.373 361.389 189.141L372.292 187.674C372.624 188.523 373.149 189.316 373.869 190.054C374.588 190.792 375.538 191.382 376.719 191.825C377.918 192.286 379.376 192.517 381.091 192.517C383.656 192.517 385.768 191.89 387.428 190.635C389.107 189.399 389.946 187.324 389.946 184.409V176.633H389.448C388.932 177.814 388.157 178.93 387.124 179.981C386.091 181.033 384.762 181.891 383.139 182.555C381.516 183.219 379.579 183.551 377.328 183.551C374.136 183.551 371.231 182.813 368.611 181.337C366.01 179.843 363.934 177.564 362.385 174.502C360.854 171.421 360.088 167.529 360.088 162.824C360.088 158.009 360.872 153.988 362.44 150.759C364.008 147.531 366.093 145.114 368.694 143.509C371.314 141.904 374.182 141.102 377.3 141.102C379.68 141.102 381.672 141.507 383.277 142.319C384.882 143.112 386.174 144.109 387.152 145.308C388.148 146.488 388.913 147.651 389.448 148.794H389.891V141.655H401.597V184.575C401.597 188.191 400.711 191.216 398.94 193.651C397.169 196.087 394.715 197.913 391.579 199.13C388.461 200.367 384.873 200.985 380.815 200.985ZM381.064 174.696C382.964 174.696 384.569 174.225 385.879 173.285C387.207 172.325 388.222 170.96 388.923 169.189C389.642 167.4 390.002 165.26 390.002 162.769C390.002 160.279 389.651 158.12 388.95 156.294C388.249 154.449 387.235 153.019 385.906 152.004C384.578 150.99 382.964 150.482 381.064 150.482C379.127 150.482 377.494 151.008 376.166 152.06C374.837 153.093 373.832 154.532 373.149 156.377C372.467 158.222 372.125 160.352 372.125 162.769C372.125 165.223 372.467 167.344 373.149 169.134C373.85 170.905 374.856 172.279 376.166 173.257C377.494 174.216 379.127 174.696 381.064 174.696Z" fill="#000212"/>
<path d="M427.076 137.366V127.487H473.621V137.366H456.27V184.16H444.426V137.366H427.076Z" fill="#000212"/>
<path d="M476.651 184.16V141.655H488.08V149.071H488.522C489.297 146.433 490.598 144.441 492.424 143.094C494.25 141.729 496.354 141.046 498.733 141.046C499.324 141.046 499.96 141.083 500.643 141.157C501.325 141.231 501.925 141.332 502.441 141.461V151.921C501.888 151.755 501.122 151.608 500.145 151.479C499.167 151.35 498.272 151.285 497.46 151.285C495.726 151.285 494.177 151.663 492.811 152.42C491.465 153.157 490.395 154.191 489.602 155.519C488.827 156.847 488.439 158.378 488.439 160.112V184.16H476.651Z" fill="#000212"/>
<path d="M519.439 184.962C516.727 184.962 514.311 184.492 512.189 183.551C510.068 182.592 508.389 181.18 507.153 179.317C505.935 177.435 505.326 175.092 505.326 172.288C505.326 169.927 505.76 167.944 506.627 166.339C507.494 164.734 508.675 163.442 510.169 162.465C511.663 161.487 513.361 160.749 515.261 160.251C517.179 159.753 519.19 159.402 521.293 159.199C523.765 158.941 525.758 158.701 527.271 158.48C528.783 158.24 529.881 157.889 530.564 157.428C531.246 156.967 531.587 156.284 531.587 155.38V155.214C531.587 153.462 531.034 152.106 529.927 151.147C528.839 150.187 527.289 149.708 525.278 149.708C523.157 149.708 521.469 150.178 520.214 151.119C518.96 152.041 518.129 153.204 517.724 154.606L506.821 153.72C507.374 151.137 508.463 148.905 510.086 147.023C511.709 145.123 513.803 143.666 516.368 142.651C518.95 141.618 521.939 141.102 525.333 141.102C527.695 141.102 529.955 141.378 532.113 141.932C534.29 142.485 536.218 143.343 537.897 144.505C539.594 145.667 540.931 147.162 541.909 148.988C542.887 150.796 543.376 152.964 543.376 155.491V184.16H532.196V178.266H531.864C531.182 179.594 530.268 180.765 529.125 181.78C527.981 182.776 526.606 183.56 525.001 184.132C523.396 184.686 521.542 184.962 519.439 184.962ZM522.815 176.827C524.549 176.827 526.081 176.485 527.409 175.803C528.737 175.102 529.779 174.161 530.536 172.98C531.292 171.799 531.67 170.462 531.67 168.968V164.457C531.301 164.697 530.794 164.918 530.148 165.121C529.521 165.306 528.811 165.481 528.018 165.647C527.224 165.795 526.431 165.933 525.638 166.062C524.845 166.173 524.125 166.274 523.479 166.366C522.096 166.569 520.887 166.892 519.854 167.335C518.821 167.778 518.019 168.377 517.447 169.134C516.875 169.872 516.589 170.794 516.589 171.901C516.589 173.506 517.17 174.733 518.332 175.581C519.513 176.411 521.007 176.827 522.815 176.827Z" fill="#000212"/>
<path d="M564.31 159.587V184.16H552.522V141.655H563.757V149.154H564.255C565.195 146.682 566.773 144.727 568.987 143.288C571.2 141.83 573.885 141.102 577.039 141.102C579.991 141.102 582.564 141.747 584.76 143.039C586.955 144.33 588.662 146.175 589.879 148.573C591.097 150.953 591.706 153.794 591.706 157.096V184.16H579.917V159.199C579.936 156.598 579.271 154.569 577.925 153.111C576.578 151.635 574.724 150.898 572.363 150.898C570.776 150.898 569.374 151.239 568.156 151.921C566.957 152.604 566.016 153.6 565.334 154.91C564.67 156.201 564.328 157.76 564.31 159.587Z" fill="#000212"/>
<path d="M636.362 153.775L625.57 154.44C625.385 153.517 624.988 152.687 624.38 151.949C623.771 151.193 622.968 150.593 621.972 150.15C620.994 149.689 619.823 149.459 618.458 149.459C616.631 149.459 615.091 149.846 613.836 150.621C612.582 151.377 611.955 152.392 611.955 153.665C611.955 154.679 612.361 155.537 613.172 156.238C613.984 156.939 615.377 157.502 617.351 157.926L625.044 159.476C629.176 160.325 632.257 161.69 634.286 163.572C636.316 165.453 637.33 167.925 637.33 170.988C637.33 173.773 636.509 176.218 634.867 178.321C633.244 180.424 631.012 182.066 628.171 183.247C625.348 184.409 622.092 184.99 618.402 184.99C612.776 184.99 608.293 183.818 604.954 181.476C601.633 179.114 599.687 175.904 599.115 171.846L610.71 171.237C611.06 172.952 611.909 174.262 613.255 175.166C614.602 176.052 616.327 176.494 618.43 176.494C620.496 176.494 622.157 176.098 623.411 175.305C624.684 174.493 625.33 173.451 625.348 172.178C625.33 171.108 624.878 170.231 623.992 169.549C623.107 168.848 621.742 168.313 619.897 167.944L612.536 166.477C608.385 165.647 605.295 164.208 603.266 162.16C601.255 160.112 600.249 157.502 600.249 154.329C600.249 151.599 600.987 149.246 602.463 147.272C603.958 145.299 606.051 143.777 608.745 142.707C611.457 141.637 614.63 141.102 618.264 141.102C623.633 141.102 627.857 142.236 630.938 144.505C634.037 146.774 635.845 149.864 636.362 153.775Z" fill="#000212"/>
<path d="M656.874 184.962C654.162 184.962 651.745 184.492 649.624 183.551C647.502 182.592 645.823 181.18 644.587 179.317C643.37 177.435 642.761 175.092 642.761 172.288C642.761 169.927 643.195 167.944 644.062 166.339C644.929 164.734 646.109 163.442 647.604 162.465C649.098 161.487 650.795 160.749 652.695 160.251C654.614 159.753 656.625 159.402 658.728 159.199C661.2 158.941 663.193 158.701 664.705 158.48C666.218 158.24 667.316 157.889 667.998 157.428C668.681 156.967 669.022 156.284 669.022 155.38V155.214C669.022 153.462 668.469 152.106 667.362 151.147C666.273 150.187 664.724 149.708 662.713 149.708C660.591 149.708 658.903 150.178 657.649 151.119C656.394 152.041 655.564 153.204 655.158 154.606L644.255 153.72C644.809 151.137 645.897 148.905 647.521 147.023C649.144 145.123 651.238 143.666 653.802 142.651C656.385 141.618 659.374 141.102 662.768 141.102C665.13 141.102 667.389 141.378 669.548 141.932C671.725 142.485 673.653 143.343 675.331 144.505C677.029 145.667 678.366 147.162 679.344 148.988C680.322 150.796 680.811 152.964 680.811 155.491V184.16H669.631V178.266H669.299C668.616 179.594 667.703 180.765 666.559 181.78C665.416 182.776 664.041 183.56 662.436 184.132C660.831 184.686 658.977 184.962 656.874 184.962ZM660.25 176.827C661.984 176.827 663.515 176.485 664.844 175.803C666.172 175.102 667.214 174.161 667.971 172.98C668.727 171.799 669.105 170.462 669.105 168.968V164.457C668.736 164.697 668.229 164.918 667.583 165.121C666.956 165.306 666.246 165.481 665.452 165.647C664.659 165.795 663.866 165.933 663.073 166.062C662.279 166.173 661.56 166.274 660.914 166.366C659.531 166.569 658.322 166.892 657.289 167.335C656.256 167.778 655.453 168.377 654.882 169.134C654.31 169.872 654.024 170.794 654.024 171.901C654.024 173.506 654.605 174.733 655.767 175.581C656.948 176.411 658.442 176.827 660.25 176.827Z" fill="#000212"/>
<path d="M709.161 184.99C704.807 184.99 701.062 184.067 697.926 182.223C694.808 180.359 692.41 177.777 690.731 174.474C689.071 171.172 688.241 167.372 688.241 163.073C688.241 158.72 689.08 154.901 690.759 151.617C692.456 148.315 694.864 145.741 697.981 143.896C701.099 142.033 704.807 141.102 709.106 141.102C712.814 141.102 716.061 141.775 718.846 143.122C721.632 144.468 723.836 146.359 725.46 148.794C727.083 151.23 727.978 154.089 728.144 157.373H717.02C716.706 155.251 715.876 153.545 714.529 152.254C713.201 150.944 711.458 150.289 709.299 150.289C707.473 150.289 705.877 150.787 704.512 151.783C703.165 152.761 702.114 154.191 701.357 156.072C700.601 157.954 700.223 160.232 700.223 162.907C700.223 165.619 700.592 167.925 701.33 169.825C702.086 171.726 703.147 173.174 704.512 174.17C705.877 175.166 707.473 175.664 709.299 175.664C710.646 175.664 711.854 175.388 712.924 174.834C714.013 174.281 714.907 173.478 715.609 172.427C716.328 171.357 716.798 170.075 717.02 168.58H728.144C727.96 171.827 727.074 174.687 725.488 177.159C723.919 179.612 721.752 181.531 718.985 182.914C716.217 184.298 712.943 184.99 709.161 184.99Z" fill="#000212"/>
<path d="M758.3 141.655V150.51H732.703V141.655H758.3ZM738.514 131.472H750.303V171.098C750.303 172.187 750.469 173.035 750.801 173.644C751.133 174.235 751.594 174.65 752.184 174.889C752.793 175.129 753.494 175.249 754.288 175.249C754.841 175.249 755.394 175.203 755.948 175.111C756.501 175 756.926 174.917 757.221 174.862L759.075 183.634C758.485 183.818 757.654 184.031 756.584 184.27C755.514 184.529 754.214 184.686 752.683 184.741C749.842 184.852 747.351 184.473 745.211 183.606C743.089 182.739 741.438 181.393 740.258 179.566C739.077 177.74 738.496 175.434 738.514 172.648V131.472Z" fill="#000212"/>
<path d="M765.979 184.16V141.655H777.768V184.16H765.979ZM771.901 136.176C770.148 136.176 768.645 135.595 767.39 134.433C766.154 133.252 765.536 131.841 765.536 130.199C765.536 128.575 766.154 127.182 767.39 126.02C768.645 124.839 770.148 124.249 771.901 124.249C773.654 124.249 775.148 124.839 776.384 126.02C777.638 127.182 778.266 128.575 778.266 130.199C778.266 131.841 777.638 133.252 776.384 134.433C775.148 135.595 773.654 136.176 771.901 136.176Z" fill="#000212"/>
<path d="M806.415 184.99C802.117 184.99 798.4 184.077 795.263 182.25C792.146 180.406 789.738 177.841 788.041 174.557C786.344 171.255 785.495 167.427 785.495 163.073C785.495 158.683 786.344 154.845 788.041 151.562C789.738 148.259 792.146 145.695 795.263 143.869C798.4 142.024 802.117 141.102 806.415 141.102C810.714 141.102 814.422 142.024 817.54 143.869C820.676 145.695 823.093 148.259 824.79 151.562C826.487 154.845 827.336 158.683 827.336 163.073C827.336 167.427 826.487 171.255 824.79 174.557C823.093 177.841 820.676 180.406 817.54 182.25C814.422 184.077 810.714 184.99 806.415 184.99ZM806.471 175.858C808.426 175.858 810.059 175.305 811.369 174.198C812.679 173.072 813.666 171.541 814.33 169.604C815.012 167.667 815.354 165.462 815.354 162.99C815.354 160.518 815.012 158.314 814.33 156.377C813.666 154.44 812.679 152.908 811.369 151.783C810.059 150.658 808.426 150.095 806.471 150.095C804.497 150.095 802.836 150.658 801.49 151.783C800.161 152.908 799.156 154.44 798.473 156.377C797.809 158.314 797.477 160.518 797.477 162.99C797.477 165.462 797.809 167.667 798.473 169.604C799.156 171.541 800.161 173.072 801.49 174.198C802.836 175.305 804.497 175.858 806.471 175.858Z" fill="#000212"/>
<path d="M846.789 159.587V184.16H835.001V141.655H846.236V149.154H846.734C847.675 146.682 849.252 144.727 851.466 143.288C853.68 141.83 856.364 141.102 859.519 141.102C862.47 141.102 865.044 141.747 867.239 143.039C869.435 144.33 871.141 146.175 872.359 148.573C873.576 150.953 874.185 153.794 874.185 157.096V184.16H862.397V159.199C862.415 156.598 861.751 154.569 860.404 153.111C859.057 151.635 857.203 150.898 854.842 150.898C853.255 150.898 851.853 151.239 850.636 151.921C849.437 152.604 848.496 153.6 847.813 154.91C847.149 156.201 846.808 157.76 846.789 159.587Z" fill="#000212"/>
<path d="M918.841 153.775L908.049 154.44C907.865 153.517 907.468 152.687 906.859 151.949C906.25 151.193 905.448 150.593 904.452 150.15C903.474 149.689 902.302 149.459 900.937 149.459C899.111 149.459 897.57 149.846 896.316 150.621C895.061 151.377 894.434 152.392 894.434 153.665C894.434 154.679 894.84 155.537 895.652 156.238C896.464 156.939 897.856 157.502 899.83 157.926L907.523 159.476C911.656 160.325 914.737 161.69 916.766 163.572C918.795 165.453 919.81 167.925 919.81 170.988C919.81 173.773 918.989 176.218 917.347 178.321C915.723 180.424 913.491 182.066 910.65 183.247C907.828 184.409 904.572 184.99 900.882 184.99C895.255 184.99 890.772 183.818 887.433 181.476C884.112 179.114 882.166 175.904 881.594 171.846L893.189 171.237C893.539 172.952 894.388 174.262 895.735 175.166C897.082 176.052 898.806 176.494 900.91 176.494C902.976 176.494 904.636 176.098 905.891 175.305C907.163 174.493 907.809 173.451 907.828 172.178C907.809 171.108 907.357 170.231 906.472 169.549C905.586 168.848 904.221 168.313 902.376 167.944L895.015 166.477C890.864 165.647 887.774 164.208 885.745 162.16C883.734 160.112 882.729 157.502 882.729 154.329C882.729 151.599 883.467 149.246 884.943 147.272C886.437 145.299 888.531 143.777 891.224 142.707C893.936 141.637 897.109 141.102 900.744 141.102C906.112 141.102 910.337 142.236 913.417 144.505C916.517 146.774 918.325 149.864 918.841 153.775Z" fill="#000212"/>
<path fill-rule="evenodd" clip-rule="evenodd" d="M41.6766 44.8237C35.9317 47.0301 31.264 50.3922 26.1888 53.7063C25.1978 54.3537 24.922 55.6764 25.5678 56.6629C26.214 57.65 27.5444 57.9237 28.5358 57.2769C33.3482 54.1342 37.7598 50.9033 43.2161 48.8065C44.3198 48.3826 44.8719 47.1444 44.4443 46.047C44.0229 44.9462 42.78 44.3992 41.6766 44.8237Z" fill="#000212"/>
<path fill-rule="evenodd" clip-rule="evenodd" d="M44.0386 27.9946C30.8563 25.0322 15.8617 24.0305 2.39107 25.4092C1.21496 25.5303 0.35728 26.5803 0.479716 27.751C0.602153 28.9218 1.65211 29.7773 2.82822 29.6561C15.853 28.3238 30.355 29.2923 43.0972 32.16C44.2511 32.4177 45.3977 31.6942 45.6561 30.5458C45.9145 29.3974 45.1925 28.2522 44.0386 27.9946Z" fill="#000212"/>
<path fill-rule="evenodd" clip-rule="evenodd" d="M50.7637 20.2471C46.7825 11.9235 39.2994 5.69363 31.5776 0.97661C30.5668 0.363645 29.2487 0.679798 28.6354 1.68119C28.0167 2.68724 28.3352 4.00185 29.3402 4.61888C36.3752 8.91305 43.2737 14.5051 46.9007 22.0853C47.4092 23.149 48.689 23.5993 49.7526 23.0932C50.8167 22.5876 51.2718 21.3102 50.7637 20.2471Z" fill="#000212"/>
<path fill-rule="evenodd" clip-rule="evenodd" d="M948.07 188.779C952.122 186.921 955.961 184.43 959.665 181.987C960.461 181.458 960.732 180.334 960.218 179.524C959.755 178.669 958.72 178.416 957.976 178.9C954.388 181.271 950.674 183.7 946.805 185.461C945.978 185.833 945.573 186.891 945.915 187.813C946.257 188.734 947.242 189.15 948.07 188.779Z" fill="#000212"/>
<path fill-rule="evenodd" clip-rule="evenodd" d="M948.568 211.699C958.239 212.972 968.024 212.906 977.709 214.425C978.591 214.587 979.441 213.901 979.569 212.928C979.696 211.953 979.093 211.023 978.159 210.906C968.461 209.369 958.664 209.418 948.98 208.129C948.056 208.025 947.223 208.733 947.106 209.722C947.04 210.665 947.644 211.596 948.568 211.699Z" fill="#000212"/>
<path fill-rule="evenodd" clip-rule="evenodd" d="M955.304 242.947C952.661 239.716 950.019 236.485 947.376 233.253C946.806 232.483 945.745 232.424 945.049 233.088C944.353 233.752 944.322 234.856 944.892 235.627C947.538 238.863 950.184 242.1 952.831 245.336C953.452 246.062 954.51 246.116 955.203 245.448C955.844 244.825 955.925 243.673 955.304 242.947Z" fill="#000212"/>
</svg>
