<svg width="1370" height="259" viewBox="0 0 1370 259" fill="none" xmlns="http://www.w3.org/2000/svg">
<path fill-rule="evenodd" clip-rule="evenodd" d="M72.1015 56.5927C81.0298 56.808 90.1539 56.3774 98.6907 59.4305C99.1996 59.6105 99.7593 59.3483 99.9433 58.8394C100.123 58.3306 99.8611 57.7709 99.3522 57.5869C90.6157 54.4634 81.2842 54.8548 72.1485 54.6356C71.6083 54.6199 71.1582 55.0505 71.1465 55.5906C71.1308 56.1308 71.5614 56.577 72.1015 56.5927Z" fill="#000212"/>
<path fill-rule="evenodd" clip-rule="evenodd" d="M71.2991 43.63C74.0821 41.0693 77.1196 39.151 80.7911 38.2002C81.3156 38.0648 81.6287 37.5305 81.4956 37.0076C81.3586 36.4846 80.8224 36.1703 80.3018 36.3057C76.3093 37.3391 73.0018 39.4066 69.9761 42.1892C69.5769 42.5548 69.5495 43.1744 69.9174 43.5721C70.2814 43.9694 70.9038 43.9956 71.2991 43.63Z" fill="#000212"/>
<path fill-rule="evenodd" clip-rule="evenodd" d="M63.557 15.6738C64.833 11.2997 67.346 7.87792 71.1976 5.40688C71.6516 5.11527 71.7847 4.50936 71.4911 4.05492C71.2015 3.60049 70.5947 3.46817 70.1407 3.75978C65.8781 6.49581 63.0912 10.2824 61.6782 15.1255C61.5255 15.6437 61.8269 16.1878 62.3436 16.3389C62.8642 16.4903 63.4083 16.1921 63.557 15.6738Z" fill="#000212"/>
<path fill-rule="evenodd" clip-rule="evenodd" d="M19.5808 9.7372C18.8214 10.6308 18.1403 11.5937 17.561 12.6188C17.3027 13.0752 16.8486 14.0452 16.7782 14.8769C16.6999 15.7631 17.0013 16.5107 17.7763 16.9045C18.8057 17.4267 19.6277 17.3723 20.2618 17.0564C20.8725 16.753 21.35 16.1569 21.6513 15.3576C22.2267 13.8299 22.1406 11.4951 21.8392 10.1627C22.6495 9.32661 23.538 8.56841 24.4891 7.89439C31.5739 2.87442 41.9661 4.72545 49.9628 12.2313C52.7615 14.8593 54.108 20.3783 54.8086 26.333C55.9007 35.6046 55.2783 45.96 55.1922 48.9939C55.1726 49.7431 55.2431 50.1878 55.2822 50.2766C55.4662 50.7134 55.7911 50.8269 56.0181 50.87C56.3469 50.9287 56.6091 50.8661 56.8205 50.7565C57.1062 50.6062 57.3411 50.3416 57.4507 49.9333C57.5094 49.7079 57.525 49.394 57.5172 49.0593C57.5094 48.8272 57.4624 48.5735 57.5094 48.4072C57.8147 47.3417 58.1826 46.3013 58.5427 45.2535C59.7444 41.7311 61.2984 38.4303 63.0245 35.1333C68.5083 24.6574 73.812 13.5884 82.803 5.60693C83.2061 5.24878 83.2453 4.62955 82.8852 4.22561C82.529 3.82166 81.9105 3.78486 81.5035 4.1434C72.3325 12.2826 66.8839 23.5422 61.2905 34.2256C59.8227 37.0302 58.4762 39.8386 57.3567 42.7762C57.4702 37.5797 57.4272 30.3866 56.476 24.0221C55.6305 18.3618 54.0218 13.3594 51.3014 10.8046C42.5415 2.58203 31.1159 0.798334 23.3579 6.29779C22.5281 6.88649 21.7375 7.53391 21.0016 8.23611C16.9426 0.906767 8.25304 -2.03086 0.573367 1.4747C0.0801769 1.69898 -0.1351 2.27986 0.0880092 2.77109C0.315033 3.26232 0.894314 3.47918 1.3875 3.25489C8.30782 0.0961313 16.1558 2.91513 19.5808 9.7372ZM20.1483 12.191C19.8313 12.6388 19.5377 13.103 19.2637 13.5829C19.1189 13.8405 18.8683 14.3356 18.7627 14.8202C18.7392 14.9337 18.7353 15.1114 18.7353 15.1936C19.0054 15.3267 19.2167 15.3909 19.3889 15.3044C19.6042 15.1979 19.7138 14.9474 19.8195 14.6675C20.0857 13.9653 20.1718 13.0345 20.1483 12.191Z" fill="#000212"/>
<path fill-rule="evenodd" clip-rule="evenodd" d="M247.07 232.864C247.058 232.032 246.949 231.192 246.731 230.347C245.966 227.38 242.553 225.475 238.92 225.027C235.288 224.579 231.512 225.598 230.056 228.179C229.224 229.655 229.109 230.927 229.449 231.999C229.788 233.065 230.592 233.949 231.683 234.638C234.724 236.558 240.051 236.949 242.481 236.147C243.605 235.775 244.703 235.327 245.772 234.815C245.161 238.17 242.883 241.347 239.843 244.211C233.236 250.435 222.983 255.159 217.399 256.895C217.099 256.989 216.933 257.307 217.026 257.607C217.119 257.907 217.438 258.075 217.738 257.982C223.432 256.211 233.884 251.386 240.622 245.039C244.103 241.761 246.583 238.07 247.007 234.191C254.875 229.986 261.337 222.359 266.862 215.94C267.067 215.703 267.04 215.343 266.802 215.137C266.564 214.934 266.205 214.959 266 215.198C260.7 221.354 254.55 228.677 247.07 232.864ZM245.926 233.474C245.969 232.539 245.877 231.588 245.629 230.629C244.967 228.062 241.925 226.543 238.78 226.155C236.853 225.919 234.871 226.114 233.316 226.809C232.339 227.245 231.533 227.878 231.048 228.739C230.411 229.869 230.273 230.835 230.534 231.654C230.795 232.48 231.444 233.143 232.29 233.675C235.061 235.425 239.912 235.797 242.123 235.066C243.428 234.636 244.694 234.099 245.926 233.474Z" fill="#000212"/>
<path fill-rule="evenodd" clip-rule="evenodd" d="M1367.8 170.148C1362.99 203.061 1333.46 219.049 1302.63 222.684C1302.1 222.747 1301.72 223.228 1301.78 223.757C1301.85 224.287 1302.33 224.667 1302.86 224.604C1334.55 220.869 1364.77 204.262 1369.71 170.426C1369.79 169.899 1369.43 169.408 1368.9 169.33C1368.37 169.252 1367.88 169.618 1367.8 170.148Z" fill="#000212"/>
<path fill-rule="evenodd" clip-rule="evenodd" d="M1303.32 223.576C1304.69 222.573 1306.43 221.334 1306.62 221.188C1311.84 217.221 1316.17 212.656 1319.98 207.301C1320.29 206.867 1320.19 206.262 1319.76 205.952C1319.32 205.642 1318.72 205.744 1318.41 206.179C1314.71 211.373 1310.52 215.801 1305.45 219.648C1305.16 219.873 1301.25 222.656 1300.51 223.278C1300.2 223.532 1300.1 223.771 1300.09 223.83C1299.99 224.137 1300.05 224.379 1300.13 224.554C1300.22 224.752 1300.46 225.04 1300.92 225.186C1301.4 225.337 1302.47 225.406 1302.74 225.445C1306.78 226.045 1311.35 226.362 1315.51 227.514C1319.48 228.611 1323.08 230.47 1325.39 234.196C1325.67 234.65 1326.27 234.789 1326.72 234.508C1327.17 234.228 1327.31 233.63 1327.03 233.176C1324.45 229.012 1320.46 226.877 1316.03 225.65C1311.9 224.505 1307.37 224.159 1303.32 223.576Z" fill="#000212"/>
</svg>
